<?xml version="1.0" standalone="no"?>
<!DOCTYPE svg PUBLIC "-//W3C//DTD SVG 20010904//EN"
 "http://www.w3.org/TR/2001/REC-SVG-20010904/DTD/svg10.dtd">
<svg version="1.0" xmlns="http://www.w3.org/2000/svg"
 width="60.000000pt" height="60.000000pt" viewBox="0 0 60.000000 60.000000"
 preserveAspectRatio="xMidYMid meet">

<g transform="translate(0.000000,60.000000) scale(0.100000,-0.100000)"
fill="#000000" stroke="none">
<path d="M112 548 c-17 -17 -17 -479 0 -496 17 -17 359 -17 376 0 17 17 17
479 0 496 -17 17 -359 17 -376 0z m160 -65 c19 -17 25 -78 8 -88 -18 -11 -11
-53 9 -60 11 -3 22 -12 25 -20 4 -12 -8 -15 -74 -15 -66 0 -78 2 -74 15 4 8
10 15 14 15 5 0 16 7 25 16 14 15 14 18 0 40 -43 66 12 147 67 97z m163 -83
c0 -18 -52 -27 -67 -12 -17 17 2 33 35 30 20 -2 32 -8 32 -18z m0 -80 c0 -18
-52 -27 -67 -12 -17 17 2 33 35 30 20 -2 32 -8 32 -18z m0 -100 c0 -12 -22
-15 -129 -18 -125 -3 -156 3 -141 27 4 8 49 11 138 9 109 -3 132 -6 132 -18z
m0 -80 c0 -12 -22 -15 -129 -18 -125 -3 -156 3 -141 27 4 8 49 11 138 9 109
-3 132 -6 132 -18z"/>
</g>
</svg>
